<svg xmlns="http://www.w3.org/2000/svg" width="120" height="30" viewBox="165 190 100 25">
<defs><clipPath id="c4ce9ec634"><path d="M 203.261719 193.378906 L 209.648438 193.378906 L 209.648438 199.765625 L 203.261719 199.765625 Z M 203.261719 193.378906 "/></clipPath><clipPath id="8e290269b7"><path d="M 206.453125 193.378906 C 204.691406 193.378906 203.261719 194.808594 203.261719 196.570312 C 203.261719 198.335938 204.691406 199.765625 206.453125 199.765625 C 208.21875 199.765625 209.648438 198.335938 209.648438 196.570312 C 209.648438 194.808594 208.21875 193.378906 206.453125 193.378906 Z M 206.453125 193.378906 "/></clipPath><clipPath id="c2f1e3262a"><path d="M 221.203125 193.378906 L 227.589844 193.378906 L 227.589844 199.765625 L 221.203125 199.765625 Z M 221.203125 193.378906 "/></clipPath><clipPath id="28e09f228e"><path d="M 224.398438 193.378906 C 222.632812 193.378906 221.203125 194.808594 221.203125 196.570312 C 221.203125 198.335938 222.632812 199.765625 224.398438 199.765625 C 226.160156 199.765625 227.589844 198.335938 227.589844 196.570312 C 227.589844 194.808594 226.160156 193.378906 224.398438 193.378906 Z M 224.398438 193.378906 "/></clipPath></defs><g id="729a3a3e98"><g clip-rule="nonzero" clip-path="url(#c4ce9ec634)"><g clip-rule="nonzero" clip-path="url(#8e290269b7)"><path style=" stroke:none;fill-rule:nonzero;fill:#ffc000;fill-opacity:1;" d="M 203.261719 193.378906 L 209.648438 193.378906 L 209.648438 199.765625 L 203.261719 199.765625 Z M 203.261719 193.378906 "/></g></g><g style="fill:#ffc000;fill-opacity:1;"><g transform="translate(193.09114, 209.877233)"><path style="stroke:none" d="M 15.84375 0.546875 C 13.394531 0.546875 11.269531 0.132812 9.46875 -0.6875 C 7.675781 -1.519531 6.191406 -2.644531 5.015625 -4.0625 C 3.835938 -5.488281 2.957031 -7.125 2.375 -8.96875 C 1.800781 -10.8125 1.515625 -12.753906 1.515625 -14.796875 C 1.515625 -16.835938 1.800781 -18.78125 2.375 -20.625 C 2.957031 -22.476562 3.835938 -24.113281 5.015625 -25.53125 C 6.191406 -26.957031 7.675781 -28.078125 9.46875 -28.890625 C 11.269531 -29.703125 13.394531 -30.109375 15.84375 -30.109375 C 18.269531 -30.109375 20.375 -29.691406 22.15625 -28.859375 C 23.945312 -28.035156 25.367188 -26.890625 26.421875 -25.421875 C 27.484375 -23.953125 28.144531 -22.25 28.40625 -20.3125 L 22.3125 -20.3125 C 22.0625 -21.882812 21.332031 -23.078125 20.125 -23.890625 C 18.925781 -24.703125 17.445312 -25.109375 15.6875 -25.109375 C 13.882812 -25.109375 12.363281 -24.675781 11.125 -23.8125 C 9.882812 -22.945312 8.941406 -21.738281 8.296875 -20.1875 C 7.648438 -18.632812 7.328125 -16.835938 7.328125 -14.796875 C 7.328125 -12.753906 7.648438 -10.953125 8.296875 -9.390625 C 8.941406 -7.828125 9.882812 -6.613281 11.125 -5.75 C 12.363281 -4.882812 13.882812 -4.453125 15.6875 -4.453125 C 17.445312 -4.453125 18.921875 -4.878906 20.109375 -5.734375 C 21.296875 -6.585938 22.03125 -7.878906 22.3125 -9.609375 L 28.40625 -9.609375 C 28.144531 -7.566406 27.484375 -5.78125 26.421875 -4.25 C 25.367188 -2.726562 23.945312 -1.546875 22.15625 -0.703125 C 20.375 0.128906 18.269531 0.546875 15.84375 0.546875 Z M 15.84375 0.546875 "/></g></g><g style="fill:#121922;fill-opacity:1;"><g transform="translate(211.700952, 209.877233)"><path style="stroke:none" d="M 15.851562 1.753906 C 13.246094 1.753906 10.960938 1.304688 8.992188 0.402344 C 7.015625 -0.5 5.378906 -1.734375 4.085938 -3.296875 C 2.808594 -4.839844 1.855469 -6.609375 1.226562 -8.609375 C 0.609375 -10.574219 0.300781 -12.636719 0.300781 -14.804688 C 0.300781 -16.96875 0.609375 -19.035156 1.226562 -21 C 1.855469 -22.996094 2.808594 -24.765625 4.085938 -26.308594 C 5.378906 -27.875 7.019531 -29.105469 8.996094 -29.996094 C 10.964844 -30.878906 13.246094 -31.320312 15.851562 -31.320312 C 18.476562 -31.320312 20.773438 -30.878906 22.742188 -29.996094 C 24.71875 -29.105469 26.359375 -27.875 27.652344 -26.308594 C 28.929688 -24.765625 29.882812 -22.996094 30.511719 -21 C 31.128906 -19.035156 31.4375 -16.96875 31.4375 -14.804688 C 31.4375 -12.636719 31.128906 -10.574219 30.511719 -8.609375 C 29.882812 -6.609375 28.929688 -4.839844 27.652344 -3.296875 C 26.359375 -1.734375 24.722656 -0.5 22.746094 0.402344 C 20.777344 1.304688 18.480469 1.753906 15.851562 1.753906 Z M 15.851562 -0.667969 C 18.128906 -0.667969 20.09375 -1.046875 21.742188 -1.800781 C 23.378906 -2.546875 24.730469 -3.5625 25.785156 -4.839844 C 26.863281 -6.140625 27.664062 -7.636719 28.199219 -9.335938 C 28.742188 -11.0625 29.015625 -12.886719 29.015625 -14.804688 C 29.015625 -16.71875 28.742188 -18.542969 28.199219 -20.273438 C 27.664062 -21.96875 26.863281 -23.464844 25.785156 -24.765625 C 24.730469 -26.042969 23.382812 -27.046875 21.746094 -27.785156 C 20.097656 -28.527344 18.128906 -28.898438 15.851562 -28.898438 C 13.59375 -28.898438 11.640625 -28.527344 9.992188 -27.785156 C 8.355469 -27.046875 7.007812 -26.042969 5.953125 -24.765625 C 4.875 -23.464844 4.074219 -21.96875 3.539062 -20.273438 C 2.996094 -18.542969 2.722656 -16.71875 2.722656 -14.804688 C 2.722656 -12.886719 2.996094 -11.0625 3.539062 -9.335938 C 4.074219 -7.636719 4.875 -6.140625 5.953125 -4.839844 C 7.007812 -3.5625 8.359375 -2.546875 9.996094 -1.800781 C 11.644531 -1.046875 13.597656 -0.667969 15.851562 -0.667969 Z M 15.851562 -5.667969 C 17.433594 -5.667969 18.757812 -6.03125 19.816406 -6.753906 C 20.890625 -7.488281 21.714844 -8.527344 22.292969 -9.875 C 22.898438 -11.285156 23.203125 -12.929688 23.203125 -14.804688 C 23.203125 -16.675781 22.902344 -18.304688 22.296875 -19.6875 C 21.71875 -21.011719 20.890625 -22.039062 19.816406 -22.773438 C 18.757812 -23.5 17.433594 -23.863281 15.851562 -23.863281 C 14.316406 -23.863281 13.011719 -23.5 11.9375 -22.773438 C 10.851562 -22.039062 10.019531 -21.007812 9.441406 -19.6875 C 8.835938 -18.304688 8.535156 -16.675781 8.535156 -14.804688 C 8.535156 -12.929688 8.839844 -11.285156 9.445312 -9.875 C 10.023438 -8.53125 10.851562 -7.492188 11.9375 -6.757812 C 13.011719 -6.03125 14.316406 -5.667969 15.851562 -5.667969 Z M 15.851562 -3.246094 C 13.820312 -3.246094 12.0625 -3.746094 10.578125 -4.75 C 9.105469 -5.75 7.984375 -7.140625 7.21875 -8.917969 C 6.480469 -10.636719 6.113281 -12.597656 6.113281 -14.804688 C 6.113281 -17.011719 6.484375 -18.964844 7.222656 -20.65625 C 7.988281 -22.40625 9.105469 -23.78125 10.578125 -24.777344 C 12.0625 -25.78125 13.820312 -26.285156 15.851562 -26.285156 C 17.933594 -26.285156 19.710938 -25.78125 21.183594 -24.773438 C 22.640625 -23.777344 23.75 -22.40625 24.515625 -20.65625 C 25.253906 -18.964844 25.625 -17.011719 25.625 -14.804688 C 25.625 -12.597656 25.257812 -10.636719 24.519531 -8.917969 C 23.753906 -7.140625 22.644531 -5.753906 21.183594 -4.753906 C 19.710938 -3.75 17.933594 -3.246094 15.851562 -3.246094 Z M 15.851562 -3.246094 "/></g></g><g style="fill:#ffc000;fill-opacity:1;"><g transform="translate(211.700952, 209.877233)"><path style="stroke:none" d="M 15.84375 0.546875 C 13.414062 0.546875 11.296875 0.132812 9.484375 -0.6875 C 7.679688 -1.519531 6.191406 -2.644531 5.015625 -4.0625 C 3.835938 -5.488281 2.957031 -7.125 2.375 -8.96875 C 1.800781 -10.8125 1.515625 -12.753906 1.515625 -14.796875 C 1.515625 -16.835938 1.800781 -18.78125 2.375 -20.625 C 2.957031 -22.476562 3.835938 -24.113281 5.015625 -25.53125 C 6.191406 -26.957031 7.679688 -28.078125 9.484375 -28.890625 C 11.296875 -29.703125 13.414062 -30.109375 15.84375 -30.109375 C 18.300781 -30.109375 20.429688 -29.703125 22.234375 -28.890625 C 24.046875 -28.078125 25.539062 -26.957031 26.71875 -25.53125 C 27.894531 -24.113281 28.769531 -22.476562 29.34375 -20.625 C 29.925781 -18.78125 30.21875 -16.835938 30.21875 -14.796875 C 30.21875 -12.753906 29.925781 -10.8125 29.34375 -8.96875 C 28.769531 -7.125 27.894531 -5.488281 26.71875 -4.0625 C 25.539062 -2.644531 24.046875 -1.519531 22.234375 -0.6875 C 20.429688 0.132812 18.300781 0.546875 15.84375 0.546875 Z M 15.84375 -4.453125 C 17.675781 -4.453125 19.222656 -4.882812 20.484375 -5.75 C 21.753906 -6.613281 22.722656 -7.828125 23.390625 -9.390625 C 24.066406 -10.953125 24.40625 -12.753906 24.40625 -14.796875 C 24.40625 -16.835938 24.066406 -18.625 23.390625 -20.15625 C 22.722656 -21.695312 21.753906 -22.898438 20.484375 -23.765625 C 19.222656 -24.640625 17.675781 -25.078125 15.84375 -25.078125 C 14.0625 -25.078125 12.53125 -24.640625 11.25 -23.765625 C 9.976562 -22.898438 9.003906 -21.695312 8.328125 -20.15625 C 7.660156 -18.625 7.328125 -16.835938 7.328125 -14.796875 C 7.328125 -12.753906 7.660156 -10.953125 8.328125 -9.390625 C 9.003906 -7.828125 9.976562 -6.613281 11.25 -5.75 C 12.53125 -4.882812 14.0625 -4.453125 15.84375 -4.453125 Z M 15.84375 -4.453125 "/></g></g><g style="fill:#ffc000;fill-opacity:1;"><g transform="translate(168.448352, 209.877233)"><path style="stroke:none" d="M 14.375 0.546875 C 12.957031 0.546875 11.515625 0.367188 10.046875 0.015625 C 8.585938 -0.328125 7.238281 -0.882812 6 -1.65625 C 4.757812 -2.4375 3.71875 -3.476562 2.875 -4.78125 C 2.039062 -6.09375 1.535156 -7.703125 1.359375 -9.609375 L 7.125 -9.609375 C 7.46875 -8.210938 8.007812 -7.117188 8.75 -6.328125 C 9.5 -5.546875 10.367188 -5 11.359375 -4.6875 C 12.359375 -4.375 13.378906 -4.21875 14.421875 -4.21875 C 15.941406 -4.21875 17.21875 -4.539062 18.25 -5.1875 C 19.28125 -5.832031 19.796875 -6.867188 19.796875 -8.296875 C 19.796875 -9.328125 19.457031 -10.125 18.78125 -10.6875 C 18.113281 -11.257812 17.242188 -11.707031 16.171875 -12.03125 C 15.097656 -12.351562 13.929688 -12.644531 12.671875 -12.90625 C 11.453125 -13.1875 10.234375 -13.492188 9.015625 -13.828125 C 7.804688 -14.171875 6.691406 -14.640625 5.671875 -15.234375 C 4.648438 -15.828125 3.835938 -16.617188 3.234375 -17.609375 C 2.628906 -18.609375 2.328125 -19.878906 2.328125 -21.421875 C 2.328125 -23.335938 2.785156 -24.929688 3.703125 -26.203125 C 4.617188 -27.484375 5.863281 -28.453125 7.4375 -29.109375 C 9.007812 -29.773438 10.789062 -30.109375 12.78125 -30.109375 C 14.695312 -30.109375 16.492188 -29.769531 18.171875 -29.09375 C 19.847656 -28.425781 21.269531 -27.40625 22.4375 -26.03125 C 23.601562 -24.664062 24.335938 -22.910156 24.640625 -20.765625 L 18.953125 -20.765625 C 18.585938 -22.347656 17.828125 -23.503906 16.671875 -24.234375 C 15.523438 -24.972656 14.191406 -25.34375 12.671875 -25.34375 C 11.273438 -25.34375 10.125 -25.050781 9.21875 -24.46875 C 8.3125 -23.882812 7.859375 -23.023438 7.859375 -21.890625 C 7.859375 -20.984375 8.175781 -20.269531 8.8125 -19.75 C 9.445312 -19.238281 10.28125 -18.832031 11.3125 -18.53125 C 12.34375 -18.238281 13.453125 -17.953125 14.640625 -17.671875 C 15.878906 -17.410156 17.125 -17.09375 18.375 -16.71875 C 19.632812 -16.34375 20.800781 -15.835938 21.875 -15.203125 C 22.945312 -14.578125 23.804688 -13.734375 24.453125 -12.671875 C 25.097656 -11.609375 25.421875 -10.238281 25.421875 -8.5625 C 25.421875 -5.769531 24.453125 -3.550781 22.515625 -1.90625 C 20.578125 -0.269531 17.863281 0.546875 14.375 0.546875 Z M 14.375 0.546875 "/></g></g><g clip-rule="nonzero" clip-path="url(#c2f1e3262a)"><g clip-rule="nonzero" clip-path="url(#28e09f228e)"><path style=" stroke:none;fill-rule:nonzero;fill:#ffc000;fill-opacity:1;" d="M 221.203125 193.378906 L 227.589844 193.378906 L 227.589844 199.765625 L 221.203125 199.765625 Z M 221.203125 193.378906 "/></g></g><g style="fill:#ffc000;fill-opacity:1;"><g transform="translate(241.091576, 209.877233)"><path style="stroke:none" d="M 14.265625 0.546875 C 11.441406 0.546875 9.148438 0.078125 7.390625 -0.859375 C 5.640625 -1.804688 4.359375 -3.132812 3.546875 -4.84375 C 2.734375 -6.550781 2.328125 -8.515625 2.328125 -10.734375 L 2.328125 -29.5625 L 7.9375 -29.5625 L 7.9375 -10.734375 C 7.9375 -9.515625 8.128906 -8.425781 8.515625 -7.46875 C 8.910156 -6.519531 9.570312 -5.78125 10.5 -5.25 C 11.425781 -4.71875 12.679688 -4.453125 14.265625 -4.453125 C 15.859375 -4.453125 17.113281 -4.71875 18.03125 -5.25 C 18.945312 -5.78125 19.597656 -6.519531 19.984375 -7.46875 C 20.378906 -8.425781 20.578125 -9.515625 20.578125 -10.734375 L 20.578125 -29.5625 L 26.1875 -29.5625 L 26.1875 -10.734375 C 26.1875 -8.515625 25.78125 -6.550781 24.96875 -4.84375 C 24.15625 -3.132812 22.867188 -1.804688 21.109375 -0.859375 C 19.359375 0.078125 17.078125 0.546875 14.265625 0.546875 Z M 14.265625 0.546875 "/></g></g><g style="fill:#ffc000;fill-opacity:1;"><g transform="translate(268.232185, 209.877233)"><path style="stroke:none" d="M 15 0 L 9.421875 0 L 9.421875 -24.5625 L 0.390625 -24.5625 L 0.390625 -29.5625 L 23.984375 -29.5625 L 23.984375 -24.5625 L 15 -24.5625 Z M 15 0 "/></g></g></g></svg>